<?xml version="1.0" encoding="UTF-8" standalone="no"?>
<!-- Created with Inkscape (http://www.inkscape.org/) -->

<svg
   width="76.157501mm"
   height="96.635193mm"
   viewBox="0 0 76.157501 96.635193"
   version="1.1"
   id="svg1"
   xml:space="preserve"
   xmlns:xlink="http://www.w3.org/1999/xlink"
   xmlns="http://www.w3.org/2000/svg"
   xmlns:svg="http://www.w3.org/2000/svg"><defs
     id="defs1"><linearGradient
       id="swatch5"><stop
         style="stop-color:#ff00de;stop-opacity:1;"
         offset="0"
         id="stop5" /></linearGradient><linearGradient
       id="swatch4"><stop
         style="stop-color:#000000;stop-opacity:1;"
         offset="0"
         id="stop4" /></linearGradient><linearGradient
       id="swatch17"><stop
         style="stop-color:#800000;stop-opacity:1;"
         offset="0"
         id="stop17" /></linearGradient><linearGradient
       id="swatch16"><stop
         style="stop-color:#800000;stop-opacity:1;"
         offset="0"
         id="stop16" /></linearGradient><linearGradient
       id="swatch15"><stop
         style="stop-color:#800000;stop-opacity:1;"
         offset="0"
         id="stop15" /></linearGradient><linearGradient
       id="swatch14"><stop
         style="stop-color:#800000;stop-opacity:1;"
         offset="0"
         id="stop14" /></linearGradient><linearGradient
       id="swatch13"><stop
         style="stop-color:#800000;stop-opacity:1;"
         offset="0"
         id="stop13" /></linearGradient><linearGradient
       id="swatch12"><stop
         style="stop-color:#800000;stop-opacity:1;"
         offset="0"
         id="stop12" /></linearGradient><linearGradient
       id="swatch11"><stop
         style="stop-color:#ff5c5c;stop-opacity:1;"
         offset="0"
         id="stop11" /></linearGradient><linearGradient
       id="swatch9"
       gradientTransform="matrix(0.04897843,0,0,0.04897843,-0.92575221,-14.566981)"><stop
         style="stop-color:#ededed;stop-opacity:1;"
         offset="0"
         id="stop9" /></linearGradient><linearGradient
       id="swatch1"
       gradientTransform="matrix(0.54701715,0,0,0.54701715,-9.9324038,-59.05599)"><stop
         style="stop-color:#ffce48;stop-opacity:1;"
         offset="0"
         id="stop1" /></linearGradient><linearGradient
       xlink:href="#swatch5"
       id="linearGradient5"
       x1="21.935556"
       y1="180.96268"
       x2="157.241"
       y2="180.96268"
       gradientUnits="userSpaceOnUse"
       gradientTransform="matrix(0.54701715,0,0,0.54701715,-9.9324038,-59.05599)" /></defs><g
     id="layer3"
     transform="translate(-2.5070508,19.059966)"><path
       id="path3"
       style="fill:none;stroke:url(#linearGradient5);stroke-width:0.273509;stroke-linecap:round;stroke-linejoin:round;stroke-dasharray:none"
       d="m 17.84866,-18.725563 -5.716721,4.944583 a 0.77084724,0.77084724 93.303733 0 0 -0.06374,1.104144 L 26.979027,3.5755826 a 2.7602822,2.7602822 63.508272 0 1 0.680555,1.3654751 l 0.891875,4.8363662 c 0.0795,0.4311071 -0.11888,1.0199571 -0.431696,1.3270431 -0.434175,0.426222 -0.856486,0.873511 -1.266348,1.342227 -0.288555,0.329991 -0.866213,0.567499 -1.302043,0.520329 l -0.555955,-0.06017 a 0.60195561,0.60195561 133.35276 0 0 -0.658521,0.697519 1.6985532,1.6985532 105.64657 0 1 -0.383138,1.36795 c -0.158785,0.189452 -0.634274,0.420737 -1.062443,0.514784 -4.698574,1.032031 -7.103977,1.457521 -9.209602,6.004741 -0.184141,0.397663 -0.645158,0.584331 -1.054823,0.428371 -3.1288948,-1.19117 -4.5961623,-0.649754 -7.5446079,1.953305 -0.3285752,0.290085 -0.2816505,0.708874 0.065563,0.976106 4.512025,3.472662 -1.3671893,8.95324 -2.368063,15.147013 -0.069789,0.431883 -0.1343119,1.140308 -0.135911,1.578546 -0.017235,4.723299 3.4466648,11.060281 12.9063269,12.32334 0.434486,0.05801 1.010885,0.369229 1.270996,0.722066 2.300239,3.120235 3.716363,6.782277 4.859549,10.611671 0.125394,0.420039 0.371209,0.438435 0.543792,0.03547 1.136927,-2.654618 1.982857,-5.419703 3.411636,-7.538705 0.244683,-0.362885 0.777408,-0.466646 1.138367,-0.21812 5.842251,4.02248 9.201343,15.488775 16.170223,18.780184 0.396226,0.187138 1.062929,0.436665 1.482798,0.5624 4.649525,1.39236 11.007525,0.283699 13.573201,-3.177877 0.260843,-0.351927 0.712501,-0.450789 1.076416,-0.206465 4.945013,3.319974 8.089792,0.790361 10.223199,-2.064346 0.262403,-0.351122 0.136121,-0.784839 -0.261643,-0.969087 -3.205624,-1.48487 -5.162537,-3.109891 -5.348857,-5.403452 -0.03545,-0.436407 0.356858,-0.839454 0.788833,-0.913965 8.144148,-1.404793 11.24594,-6.680237 9.731367,-15.587458 -0.07348,-0.432161 0.19569,-0.895826 0.583812,-1.09895 1.608945,-0.842039 2.182764,-2.230386 1.75763,-4.28684 -0.08871,-0.429114 0.0869,-0.98605 0.399625,-1.292962 1.907901,-1.872414 2.536255,-4.655216 -0.720446,-7.998677 -0.305841,-0.313989 -0.700249,-0.222329 -0.890355,0.172606 -1.723706,3.580908 -3.732242,2.939249 -5.044466,2.025145 -0.359543,-0.250459 -0.519542,-0.827784 -0.389218,-1.246339 l 0.0164,-0.05266 a 5.8357041,5.8357041 115.04049 0 1 0.665791,-1.425166 L 72.22828,30.781743 A 0.61013419,0.61013419 70.33462 0 0 71.9027,29.870697 L 70.684468,29.477615 C 70.267272,29.343 70.010666,28.887887 70.096392,28.457993 c 0.545937,-2.737746 0.619756,-5.396811 0.782793,-8.070739 0.02666,-0.43727 0.146986,-1.133877 0.254494,-1.558857 0.549747,-2.173169 0.894554,-4.37554 1.131394,-6.59341 0.04655,-0.435882 -0.241877,-0.638792 -0.638769,-0.452646 L 67.25256,13.833664 C 66.855668,14.01981 66.260913,13.943211 65.924829,13.661748 63.37264,11.524343 61.122708,9.5933006 58.732751,8.0489901 58.36469,7.8111617 58.124976,7.2779582 58.204464,6.8468489 L 58.555851,4.9410621 A 2.760125,2.760125 116.49086 0 1 59.236382,3.5755826 L 74.147207,-12.676836 a 0.77084724,0.77084724 86.696267 0 0 -0.06374,-1.104144 l -5.716721,-4.944583 a 0.81428298,0.81428298 176.5892 0 0 -1.134759,0.06763 L 50.043022,0.21874708 A 2.7473025,2.7473025 116.20572 0 0 49.369536,1.5871076 L 48.993452,3.700425 c -0.07681,0.431595 -0.492294,0.7415686 -0.92929,0.7070172 -0.631317,-0.049916 -1.285942,-0.079261 -1.966735,-0.086974 -0.438338,-0.00497 -1.149162,0.00417 -1.587198,0.02111 -2.142971,0.082897 -4.221166,0.3908424 -6.206397,0.936006 -0.422707,0.11608 -0.824179,-0.1275423 -0.900959,-0.5591421 L 36.845825,1.5871162 A 2.7469846,2.7469846 63.796051 0 0 36.172387,0.21874708 L 18.983419,-18.657931 a 0.81428298,0.81428298 3.4108034 0 0 -1.134759,-0.06763 z" /><path
       d="m 38.983212,26.875864 -0.845492,0.954326 -0.227275,6.736238 0.66373,1.054392 c 1.226026,0.391916 2.488496,0.565081 3.736169,0.827124 l 1.090857,-0.827124 c 0.141029,-2.247546 0.20978,-4.531228 0.254411,-6.826977 l -0.77256,-1.199975 z"
       style="display:inline;fill:none;stroke:#ff00de;stroke-width:0.273509;stroke-linecap:round;stroke-linejoin:round;stroke-opacity:1"
       id="path1-5" /><path
       d="m 64.855681,35.451757 c 0,0 1.350049,-0.838217 1.511972,-1.190676 0.126169,-0.274646 0.318889,-0.901971 0.362081,-1.351991 0.133833,-1.394539 -0.06466,-4.843028 -0.200701,-5.502627 -0.06139,-0.297687 -0.739622,-1.172645 -0.739622,-1.172645 -1.020579,2.988743 -1.171743,6.141291 -0.93373,9.217939 z"
       style="display:inline;fill:none;stroke:#ff00de;stroke-width:0.273509;stroke-linecap:round;stroke-linejoin:round;stroke-dasharray:none;stroke-opacity:1"
       id="path1-2" /><path
       style="fill:none;stroke:#ff00de;stroke-width:0.287721;stroke-linecap:round;stroke-linejoin:round"
       id="rect2"
       width="10.515016"
       height="1.4668826"
       x="42.168816"
       y="49.548336"
       d="m 42.962566,49.548336 h 8.927515 a 0.79374998,0.79374998 45 0 1 0.79375,0.79375 0.73591662,0.73591662 139.70069 0 1 -0.79375,0.673133 l -8.927515,0 a 0.79374998,0.79374998 45 0 1 -0.79375,-0.79375 0.73591662,0.73591662 139.70069 0 1 0.79375,-0.673133 z" /></g></svg>
