<?xml version="1.0" encoding="UTF-8" standalone="no"?>
<!-- Created with Inkscape (http://www.inkscape.org/) -->

<svg
   width="76.157501mm"
   height="96.635193mm"
   viewBox="0 0 76.157501 96.635193"
   version="1.1"
   id="svg1"
   xml:space="preserve"
   xmlns="http://www.w3.org/2000/svg"
   xmlns:svg="http://www.w3.org/2000/svg"><defs
     id="defs1"><linearGradient
       id="swatch5"><stop
         style="stop-color:#ff00de;stop-opacity:1;"
         offset="0"
         id="stop5" /></linearGradient><linearGradient
       id="swatch4"><stop
         style="stop-color:#000000;stop-opacity:1;"
         offset="0"
         id="stop4" /></linearGradient><linearGradient
       id="swatch17"><stop
         style="stop-color:#800000;stop-opacity:1;"
         offset="0"
         id="stop17" /></linearGradient><linearGradient
       id="swatch16"><stop
         style="stop-color:#800000;stop-opacity:1;"
         offset="0"
         id="stop16" /></linearGradient><linearGradient
       id="swatch15"><stop
         style="stop-color:#800000;stop-opacity:1;"
         offset="0"
         id="stop15" /></linearGradient><linearGradient
       id="swatch14"><stop
         style="stop-color:#800000;stop-opacity:1;"
         offset="0"
         id="stop14" /></linearGradient><linearGradient
       id="swatch13"><stop
         style="stop-color:#800000;stop-opacity:1;"
         offset="0"
         id="stop13" /></linearGradient><linearGradient
       id="swatch12"><stop
         style="stop-color:#800000;stop-opacity:1;"
         offset="0"
         id="stop12" /></linearGradient><linearGradient
       id="swatch11"><stop
         style="stop-color:#ff5c5c;stop-opacity:1;"
         offset="0"
         id="stop11" /></linearGradient><linearGradient
       id="swatch9"
       gradientTransform="matrix(0.04897843,0,0,0.04897843,-0.92575221,-14.566981)"><stop
         style="stop-color:#ededed;stop-opacity:1;"
         offset="0"
         id="stop9" /></linearGradient><linearGradient
       id="swatch1"
       gradientTransform="matrix(0.54701715,0,0,0.54701715,-9.9324038,-59.05599)"><stop
         style="stop-color:#ffce48;stop-opacity:1;"
         offset="0"
         id="stop1" /></linearGradient></defs><g
     id="layer2"
     style="display:inline"
     transform="translate(-2.5070513,19.059966)"><path
       id="path1"
       style="display:inline;opacity:1;fill:url(#swatch9);fill-opacity:1;stroke-width:0.273509;stroke-linecap:round;stroke-linejoin:round;stroke-dasharray:none"
       d="M 44.489231,5.8233499 C 43.375704,5.8486809 42.269096,5.9670024 41.177648,6.1871605 34.570821,7.5198306 30.797603,10.413706 26.553535,14.194043 l -1.242939,-0.256393 0.369744,1.221457 -1.22513,1.306539 c -6.569604,0.384827 -9.231585,3.734957 -10.39665,8.221439 -2.710891,-3.287655 -5.3787313,-1.591782 -6.9312889,-0.349961 0,0 3.4124139,1.539499 3.0684809,3.714122 -0.4677447,2.957459 -4.7901041,5.206274 -4.1457693,9.832141 0.2848979,2.045373 2.5118838,4.156226 2.5118838,4.156226 -1.4518527,-1.00055 -2.6596734,-2.367201 -3.4271986,-4.394244 0,0 -1.6438708,4.838083 2.0310477,10.02747 1.9070281,2.692934 5.5956764,3.788111 9.6190004,4.838334 -0.238757,-0.201794 -0.487942,-0.400366 -0.748251,-0.595887 0.08107,-0.04995 0.161263,-0.100513 0.240559,-0.151798 C 13.880798,51.053624 11.682643,50.347742 9.9806323,49.40538 6.0234882,47.214396 5.3103807,43.369958 5.2909891,39.045761 c 2.2229584,3.770977 4.8521929,4.368753 7.2323419,4.646397 -2.670356,-0.719203 -6.0848958,-3.171912 -6.1281984,-6.685644 -0.062363,-5.060106 8.5637344,-8.807119 1.4792587,-12.77539 2.3632067,-1.51637 5.0893347,-1.50834 6.4354697,1.727732 0.711503,-4.292771 3.284729,-8.670677 9.821398,-9.035268 -1.042749,1.01651 -1.756584,2.164656 -2.464112,3.315257 -0.08567,7.516503 2.163198,15.063584 6.365929,22.170229 2.832876,2.537175 5.255346,4.514817 8.90354,6.868533 6.581843,4.246429 14.360615,7.58016 15.787339,7.475165 0.527396,-0.03883 4.580811,-3.717042 6.008055,-6.601403 l 0.815531,0.0602 c 0.238992,0.0598 3.626445,-3.06201 4.837765,-5.045533 1.59164,-2.60629 3.29911,-8.294897 3.248833,-8.315005 0.208836,-0.195137 0.402578,-0.403415 0.563094,-0.640831 0,0 1.722689,2.295328 3.786772,2.29111 2.32142,-0.0049 3.864135,-0.976755 4.087536,-3.070172 1.771149,2.72518 0.725865,5.49621 -1.833739,6.140066 0.06041,0.01603 0.688712,1.359075 0.420908,2.99046 -0.210481,1.282214 -2.162888,2.365801 -2.191892,2.27557 2.245478,10.318041 -3.039632,15.042201 -10.123297,16.211352 -0.528336,3.786967 -0.404864,7.28646 5.347438,8.304547 -3.291627,3.273118 -7.116021,2.470731 -9.256041,-0.256956 -2.465105,2.989779 -5.962197,4.618173 -9.21138,4.478203 C 38.151197,75.0974 36.497585,61.799808 29.097647,56.826548 c -1.024711,-0.688674 -2.121482,-1.282914 -3.258725,-1.808013 -0.0956,0.105542 -0.188751,0.212156 -0.279852,0.320274 1.239459,0.599574 2.399909,1.318541 3.428614,2.213094 9.737511,8.467662 9.225886,18.400813 19.655798,18.484095 6.345846,0.05065 8.51803,-3.09105 9.653768,-4.298696 1.912363,2.087435 6.676932,3.892291 9.76656,-0.602673 -5.695925,-1.072088 -5.671934,-4.354119 -5.461074,-7.708374 3.514033,-0.15881 13.563921,-4.357687 10.230436,-16.241887 2.499868,-1.354032 2.694328,-3.240163 1.901016,-5.352524 3.807906,-1.540806 2.651677,-5.572092 1.107819,-6.930725 -0.323567,4.755018 -5.996009,3.465907 -7.399972,0.898072 l 0.705,-2.172949 c 0.590719,-0.955525 1.228471,-1.675788 1.771835,-2.868067 -0.765159,-0.361868 -1.583058,-0.552115 -2.394859,-0.762383 0.660261,-3.265424 0.95508,-6.696819 1.083794,-10.203861 0.686398,-2.23422 1.468036,-4.408855 1.787379,-6.872489 l -5.377973,2.934769 C 60.415105,10.020619 52.28393,5.6459476 44.489231,5.8233499 Z m -0.262889,0.432499 c 8.78285,0.01008 15.901092,4.3145391 21.438657,9.9279681 -0.707059,2.796888 -1.277248,7.118444 -1.309089,9.143251 -0.06834,4.345509 -0.07354,8.634545 0.198726,13.04818 0.910422,-0.431262 1.883484,-0.689749 2.732936,-1.258204 -0.605428,2.286279 -1.436774,4.547342 -2.47853,6.785141 -1.55261,2.63491 -3.144965,4.426402 -5.300794,6.070249 -4.434766,-0.306193 -8.614146,-1.350908 -12.743733,-2.53874 L 40.507416,42.994503 36.496768,41.411501 34.801541,38.12536 c 5.931211,2.261742 10.917822,3.09318 15.292652,2.840924 0,0 0.719934,-10.550994 -0.375401,-12.336114 C 46.138548,22.795291 33.15019,16.164049 27.133875,14.399268 c 0,0 7.962156,-7.9330197 17.092467,-8.1434191 z m 26.77337,7.4025161 c -0.322564,1.86737 -0.983668,3.959468 -1.791054,6.117736 -0.124053,2.703507 -0.171714,5.390662 -0.617934,8.163204 -0.0115,-2.43561 -0.113035,-4.849423 -0.818359,-7.117574 0.781196,-1.447322 1.357943,-2.96775 1.800102,-4.536151 -1.351717,0.812943 -2.647929,1.643398 -3.545359,2.599802 l 3.290664,-2.245603 c -0.7383,1.900758 -1.783463,3.914663 -3.054342,6.172579 -0.735344,2.543329 -1.416715,5.143921 -1.745265,8.117971 L 64.8,23.739826 c 0.08193,-2.59936 0.645168,-4.939642 1.156439,-7.307815 1.56635,-1.019383 3.273021,-2.060117 5.043273,-2.773646 z m -45.231459,0.692278 c 9.15327,2.212412 21.821393,10.882579 23.590409,14.449983 1.013575,2.043979 0.578362,10.458275 0.578362,10.458275 0,0 -1.247282,-9.096142 -2.031054,-10.046977 -3.612547,-4.38261 -15.094602,-7.978831 -17.47097,-8.317544 -0.05423,1.509073 0.883559,12.637348 2.412947,14.520089 1.157047,1.424373 8.418297,4.195431 10.418982,4.802997 -4.767401,-1.103164 -10.122891,-2.787501 -15.405438,-5.512243 0.713793,-0.773116 1.459512,-1.528131 2.34143,-2.205174 -0.924489,-3.870442 -1.625525,-7.809693 -1.66385,-11.952801 -0.998035,-1.991175 -1.975354,-4.002859 -2.770818,-6.196605 z m 0.08707,1.304566 c 0.671265,1.693136 1.449605,3.300613 2.240231,4.898259 0.228055,4.243326 0.774322,8.213851 1.722081,11.84029 l -2.635416,2.397402 2.622695,1.195729 1.577631,2.142142 c 1.164505,3.178941 2.691538,6.279018 4.644415,9.286574 1.911312,1.619634 3.82255,3.040211 5.73386,4.422508 -6.09571,-3.403245 -9.300929,-5.957198 -13.369867,-9.57773 -4.873702,-8.246983 -6.355131,-15.290749 -6.335401,-21.985637 1.160466,-1.597694 2.374872,-3.166076 3.799771,-4.619537 z m 12.162264,7.96278 c 2.504528,1.019525 4.81506,2.197859 7.125772,3.774615 0.101926,-0.01854 1.633011,5.86583 1.504981,6.173144 0.07937,0.353127 -2.927243,4.582718 -4.763987,5.820362 L 38.684142,38.079 c -1.521347,-2.192762 -2.6891,-4.534384 -3.753128,-6.919701 0.705282,-2.652394 1.881831,-5.102971 3.086573,-7.54131 z m 28.260546,0.280701 c 0.535141,1.580935 1.073588,3.159599 1.467105,4.834944 -0.04704,2.982387 -0.789754,5.732591 -1.648868,8.390755 -0.467714,0.482246 -0.917938,0.719821 -1.369014,0.969025 l -0.03988,-2.753011 c -0.07964,-5.498547 0.05571,-6.023343 1.590657,-11.441713 z m 2.32164,6.495119 c 0.724004,0.08514 1.362407,0.277436 1.990907,0.481965 -0.57776,0.981688 -1.180446,1.888506 -1.781723,2.799652 -0.110931,0.29308 -0.364968,1.826073 -0.918425,2.590755 -0.458406,0.633357 -2.17267,1.500177 -2.17267,1.500177 1.696416,-1.68374 2.175881,-1.961062 2.491253,-4.32725 z m -37.997704,5.991944 4.010931,1.645192 1.568304,3.201057 -3.92104,-2.429625 z m 1.478411,2.648137 c 1.48718,0.846465 2.949724,1.727415 4.351561,2.693365 l 4.004712,1.413957 c 0,0 3.923403,3.427813 6.247772,4.583075 1.886285,0.937532 8.481239,2.197832 11.843114,2.43189 -1.549137,2.490531 -3.522217,4.621087 -5.871239,6.432922 C 45.642057,54.440317 41.874887,51.96257 36.201374,47.210375 34.591814,44.570666 33.158168,41.867007 32.080479,39.03389 Z" /><path
       id="path4"
       style="opacity:1;fill:url(#swatch9);fill-opacity:1;stroke-width:0.273509;stroke-linecap:round;stroke-linejoin:round"
       d="m 39.999442,18.451752 c 3.684835,2.312344 7.425334,4.495133 10.413327,8.433445 0.608672,-2.195891 0.606337,-4.498204 -0.360133,-6.968036 -3.580939,-1.398214 -6.804162,-1.461203 -10.053194,-1.465409 z" /><path
       id="path5"
       style="opacity:1;fill:url(#swatch9);fill-opacity:1;stroke-width:0.273509;stroke-linecap:round;stroke-linejoin:round"
       d="m 64.219942,16.112016 c -1.537381,0.428615 -2.428329,1.58437 -3.14961,2.9311 0.02917,2.321928 0.874172,4.783817 1.786817,6.684788 0.296034,-3.205377 0.659746,-6.410509 1.362793,-9.615888 z" /><path
       id="path7"
       style="opacity:1;fill:url(#swatch9);fill-opacity:1;stroke-width:0.273509;stroke-linecap:round;stroke-linejoin:round"
       d="m 61.340291,35.929223 -4.718192,0.276179 2.924594,3.606139 c 0.708398,-1.274042 1.272422,-2.574235 1.793598,-3.882318 z" /><path
       id="path8"
       style="display:inline;opacity:1;fill:url(#swatch9);fill-opacity:1;stroke-width:0.273509;stroke-linecap:round;stroke-linejoin:round"
       d="m 59.972901,33.075429 -2.136249,0.172715 1.290955,1.745483 c 0.329917,-0.632522 0.599864,-1.273604 0.845294,-1.918198 z" /></g></svg>
